<mxfile host="app.diagrams.net" modified="2021-02-21T14:49:09.316Z" agent="5.0 (X11)" etag="XZCVvzebCnCVOwETSmGM" version="14.4.2" type="github">
  <diagram id="Ja7Ptm8zE9fpdGyBm_V0" name="Page-1">
    <mxGraphModel dx="1355" dy="743" grid="1" gridSize="10" guides="1" tooltips="1" connect="1" arrows="1" fold="1" page="1" pageScale="1" pageWidth="1100" pageHeight="850" math="0" shadow="0">
      <root>
        <mxCell id="0" />
        <mxCell id="1" parent="0" />
        <mxCell id="sewIIFxveAveKcRdfyBw-11" style="edgeStyle=orthogonalEdgeStyle;rounded=0;orthogonalLoop=1;jettySize=auto;html=1;exitX=0.5;exitY=1;exitDx=0;exitDy=0;entryX=0.45;entryY=0.008;entryDx=0;entryDy=0;entryPerimeter=0;" edge="1" parent="1" source="sewIIFxveAveKcRdfyBw-3" target="sewIIFxveAveKcRdfyBw-9">
          <mxGeometry relative="1" as="geometry" />
        </mxCell>
        <mxCell id="sewIIFxveAveKcRdfyBw-16" value="1" style="edgeLabel;html=1;align=center;verticalAlign=middle;resizable=0;points=[];" vertex="1" connectable="0" parent="sewIIFxveAveKcRdfyBw-11">
          <mxGeometry x="-0.7889" relative="1" as="geometry">
            <mxPoint as="offset" />
          </mxGeometry>
        </mxCell>
        <mxCell id="sewIIFxveAveKcRdfyBw-17" value="1" style="edgeLabel;html=1;align=center;verticalAlign=middle;resizable=0;points=[];" vertex="1" connectable="0" parent="sewIIFxveAveKcRdfyBw-11">
          <mxGeometry x="0.6746" y="-1" relative="1" as="geometry">
            <mxPoint as="offset" />
          </mxGeometry>
        </mxCell>
        <mxCell id="sewIIFxveAveKcRdfyBw-12" style="edgeStyle=orthogonalEdgeStyle;rounded=0;orthogonalLoop=1;jettySize=auto;html=1;exitX=1;exitY=0.5;exitDx=0;exitDy=0;entryX=-0.006;entryY=0.818;entryDx=0;entryDy=0;entryPerimeter=0;" edge="1" parent="1" source="sewIIFxveAveKcRdfyBw-3" target="sewIIFxveAveKcRdfyBw-5">
          <mxGeometry relative="1" as="geometry" />
        </mxCell>
        <mxCell id="sewIIFxveAveKcRdfyBw-14" value="1..n" style="edgeLabel;html=1;align=center;verticalAlign=middle;resizable=0;points=[];" vertex="1" connectable="0" parent="sewIIFxveAveKcRdfyBw-12">
          <mxGeometry x="-0.8841" y="4" relative="1" as="geometry">
            <mxPoint as="offset" />
          </mxGeometry>
        </mxCell>
        <mxCell id="sewIIFxveAveKcRdfyBw-15" value="1" style="edgeLabel;html=1;align=center;verticalAlign=middle;resizable=0;points=[];" vertex="1" connectable="0" parent="sewIIFxveAveKcRdfyBw-12">
          <mxGeometry x="0.877" y="-1" relative="1" as="geometry">
            <mxPoint as="offset" />
          </mxGeometry>
        </mxCell>
        <mxCell id="sewIIFxveAveKcRdfyBw-3" value="&lt;div style=&quot;box-sizing: border-box ; width: 100% ; background: #e4e4e4 ; padding: 2px&quot;&gt;employees&lt;/div&gt;&lt;table style=&quot;width: 100% ; font-size: 1em&quot; cellspacing=&quot;0&quot; cellpadding=&quot;2&quot;&gt;&lt;tbody&gt;&lt;tr&gt;&lt;td&gt;PK&lt;/td&gt;&lt;td&gt;employeeId&lt;/td&gt;&lt;/tr&gt;&lt;tr&gt;&lt;td&gt;&lt;br&gt;&lt;/td&gt;&lt;td&gt;full_name&lt;br&gt;&lt;/td&gt;&lt;/tr&gt;&lt;tr&gt;&lt;td&gt;FK2&lt;br&gt;FK3&lt;br&gt;FK4&lt;br&gt;&lt;/td&gt;&lt;td&gt;home_address&lt;br&gt;date_of_birth&lt;br&gt;education&lt;br&gt; work_experience_in_the_company&lt;br&gt;current_position&lt;br&gt;participation_in_projects_and_roles_performed&lt;br&gt; history_of_positions_held_and_participation_in_project_projects&lt;br&gt; general_history_of_all_payments&lt;br&gt;bonuses_and_their_discharge_dates&lt;/td&gt;&lt;/tr&gt;&lt;/tbody&gt;&lt;/table&gt;" style="verticalAlign=top;align=left;overflow=fill;html=1;" vertex="1" parent="1">
          <mxGeometry x="40" y="70" width="460" height="200" as="geometry" />
        </mxCell>
        <mxCell id="sewIIFxveAveKcRdfyBw-5" value="&lt;div style=&quot;box-sizing: border-box ; width: 100% ; background: #e4e4e4 ; padding: 2px&quot;&gt;Projects&lt;/div&gt;&lt;table style=&quot;width: 100% ; font-size: 1em&quot; cellspacing=&quot;0&quot; cellpadding=&quot;2&quot;&gt;&lt;tbody&gt;&lt;tr&gt;&lt;td&gt;PK&lt;/td&gt;&lt;td&gt;projectId&lt;/td&gt;&lt;/tr&gt;&lt;tr&gt;&lt;td&gt;&lt;br&gt;&lt;br&gt;&lt;br&gt;&lt;br&gt;FK1&lt;br&gt;&lt;/td&gt;&lt;td&gt;project_name&lt;br&gt;start_date&lt;br&gt;end_date&lt;br&gt;role_in_project&lt;br&gt;employeeId&lt;br&gt;&lt;/td&gt;&lt;/tr&gt;&lt;tr&gt;&lt;td&gt;&lt;br&gt;&lt;/td&gt;&lt;td&gt;&lt;br&gt;&lt;/td&gt;&lt;/tr&gt;&lt;/tbody&gt;&lt;/table&gt;" style="verticalAlign=top;align=left;overflow=fill;html=1;" vertex="1" parent="1">
          <mxGeometry x="760" y="80" width="180" height="110" as="geometry" />
        </mxCell>
        <mxCell id="sewIIFxveAveKcRdfyBw-9" value="&lt;div style=&quot;box-sizing: border-box ; width: 100% ; background: #e4e4e4 ; padding: 2px&quot;&gt;Payments&lt;/div&gt;&lt;table style=&quot;width: 100% ; font-size: 1em&quot; cellspacing=&quot;0&quot; cellpadding=&quot;2&quot;&gt;&lt;tbody&gt;&lt;tr&gt;&lt;td&gt;PK&lt;/td&gt;&lt;td&gt;paymentId&lt;/td&gt;&lt;/tr&gt;&lt;tr&gt;&lt;td&gt;&lt;br&gt;FK1&lt;br&gt;&lt;br&gt;FK3&lt;br&gt;FK2&lt;br&gt;FK4&lt;br&gt;&lt;/td&gt;&lt;td&gt;money&lt;br&gt;employeeId&lt;br&gt;special_date&lt;br&gt;current_position&lt;br&gt;work_experience_in_the_company&lt;br&gt;participation_in_projects_and_roles_performed&lt;/td&gt;&lt;/tr&gt;&lt;tr&gt;&lt;td&gt;&lt;br&gt;&lt;/td&gt;&lt;td&gt;&lt;br&gt;&lt;br&gt;&lt;br&gt;&lt;/td&gt;&lt;/tr&gt;&lt;/tbody&gt;&lt;/table&gt;" style="verticalAlign=top;align=left;overflow=fill;html=1;" vertex="1" parent="1">
          <mxGeometry x="90" y="425" width="380" height="140" as="geometry" />
        </mxCell>
      </root>
    </mxGraphModel>
  </diagram>
</mxfile>
